<?xml version="1.0" encoding="utf-8"?>
<!-- Generator: Adobe Illustrator 19.1.0, SVG Export Plug-In . SVG Version: 6.00 Build 0)  -->
<svg version="1.1" id="Layer_1" xmlns="http://www.w3.org/2000/svg" xmlns:xlink="http://www.w3.org/1999/xlink" x="0px" y="0px"
	 viewBox="0 0 1706.3 636.3" style="enable-background:new 0 0 1706.3 636.3;" xml:space="preserve">
<style type="text/css">
	.st0{fill:none;}
	.st1{fill:url(#SVGID_1_);stroke:#000000;stroke-miterlimit:10;}
	.st2{fill:url(#SVGID_2_);stroke:#000000;stroke-miterlimit:10;}
	.st3{fill:url(#SVGID_3_);stroke:#000000;stroke-miterlimit:10;}
	.st4{fill:url(#SVGID_4_);stroke:#000000;stroke-miterlimit:10;}
	.st5{fill:url(#SVGID_5_);stroke:#000000;stroke-miterlimit:10;}
	.st6{fill:url(#SVGID_6_);stroke:#000000;stroke-miterlimit:10;}
	.st7{font-family:'MyriadPro-Regular';}
	.st8{font-size:12.5168px;}
	.st9{letter-spacing:33.7;}
	.st10{fill:url(#SVGID_7_);stroke:#000000;stroke-miterlimit:10;}
	.st11{fill:#29ABE2;stroke:#000000;stroke-width:3;stroke-miterlimit:10;}
	.st12{fill:#29ABE2;stroke:#000000;stroke-miterlimit:10;}
	.st13{stroke:#000000;stroke-width:0.5;stroke-miterlimit:10;}
	.st14{stroke:#000000;stroke-miterlimit:10;}
	.st15{fill:none;stroke:#000000;stroke-miterlimit:10;}
	.st16{fill:none;stroke:#000000;stroke-width:3;stroke-miterlimit:10;}
	.st17{fill:url(#SVGID_8_);stroke:#000000;stroke-miterlimit:10;}
	.st18{fill:url(#SVGID_9_);stroke:#000000;stroke-miterlimit:10;}
	.st19{fill:url(#SVGID_10_);stroke:#000000;stroke-miterlimit:10;}
	.st20{fill:url(#SVGID_11_);stroke:#000000;stroke-miterlimit:10;}
	.st21{fill:url(#SVGID_12_);stroke:#000000;stroke-miterlimit:10;}
	.st22{fill:url(#SVGID_13_);stroke:#000000;stroke-miterlimit:10;}
	.st23{fill:url(#SVGID_14_);stroke:#000000;stroke-miterlimit:10;}
	.st24{fill:url(#SVGID_15_);stroke:#000000;stroke-miterlimit:10;}
	.st25{fill:url(#SVGID_16_);stroke:#000000;stroke-miterlimit:10;}
	.st26{fill:url(#SVGID_17_);stroke:#000000;stroke-miterlimit:10;}
	.st27{fill:url(#SVGID_18_);stroke:#000000;stroke-miterlimit:10;}
	.st28{fill:url(#SVGID_19_);stroke:#000000;stroke-miterlimit:10;}
	.st29{fill:#999999;stroke:#000000;stroke-width:3;stroke-miterlimit:10;}
	.st30{fill:url(#SVGID_20_);stroke:#000000;stroke-miterlimit:10;}
	.st31{fill:url(#SVGID_21_);stroke:#000000;stroke-miterlimit:10;}
	.st32{fill:url(#SVGID_22_);stroke:#000000;stroke-miterlimit:10;}
	.st33{fill:url(#SVGID_23_);stroke:#000000;stroke-miterlimit:10;}
	.st34{fill:url(#SVGID_24_);stroke:#000000;stroke-miterlimit:10;}
	.st35{fill:url(#SVGID_25_);stroke:#000000;stroke-miterlimit:10;}
	.st36{fill:url(#SVGID_26_);stroke:#000000;stroke-miterlimit:10;}
	.st37{fill:url(#SVGID_27_);stroke:#000000;stroke-miterlimit:10;}
	.st38{fill:url(#SVGID_28_);stroke:#000000;stroke-miterlimit:10;}
	.st39{fill:url(#SVGID_29_);stroke:#000000;stroke-miterlimit:10;}
	.st40{fill:url(#SVGID_30_);stroke:#000000;stroke-miterlimit:10;}
	.st41{fill:#C8AAFF;stroke:#000000;stroke-miterlimit:10;}
	.st42{fill:#C8AAFF;stroke:#000000;stroke-width:3;stroke-miterlimit:10;}
	.st43{fill:url(#SVGID_31_);stroke:#000000;stroke-miterlimit:10;}
	.st44{fill:url(#SVGID_32_);stroke:#000000;stroke-miterlimit:10;}
	.st45{fill:url(#SVGID_33_);stroke:#000000;stroke-miterlimit:10;}
	.st46{fill:url(#SVGID_34_);stroke:#000000;stroke-miterlimit:10;}
	.st47{fill:url(#SVGID_35_);stroke:#000000;stroke-miterlimit:10;}
	.st48{fill:url(#SVGID_36_);stroke:#000000;stroke-miterlimit:10;}
	.st49{fill:url(#SVGID_37_);stroke:#000000;stroke-miterlimit:10;}
	.st50{fill:url(#SVGID_38_);stroke:#000000;stroke-miterlimit:10;}
	.st51{fill:url(#SVGID_39_);stroke:#000000;stroke-miterlimit:10;}
	.st52{fill:url(#SVGID_40_);stroke:#000000;stroke-miterlimit:10;}
	.st53{fill:url(#SVGID_41_);stroke:#000000;stroke-miterlimit:10;}
	.st54{fill:url(#SVGID_42_);stroke:#000000;stroke-miterlimit:10;}
	.st55{fill:url(#SVGID_43_);stroke:#000000;stroke-miterlimit:10;}
	.st56{fill:url(#SVGID_44_);stroke:#000000;stroke-miterlimit:10;}
	.st57{font-size:12px;}
	.st58{fill:#F2F2F2;}
	.st59{fill:#FFFFFF;}
</style>
<line class="st0" x1="132.4" y1="176.4" x2="161" y2="196.1"/>
<line class="st0" x1="132.4" y1="215.7" x2="161" y2="196.1"/>
<line class="st0" x1="117" y1="188.3" x2="119" y2="188.3"/>
<line class="st0" x1="161" y1="196.1" x2="137.1" y2="212.5"/>
<radialGradient id="SVGID_1_" cx="44.7303" cy="173.7331" r="23.7718" gradientUnits="userSpaceOnUse">
	<stop  offset="0" style="stop-color:#FFFFFF"/>
	<stop  offset="8.510864e-002" style="stop-color:#FFEDD8"/>
	<stop  offset="0.2082" style="stop-color:#FFD5A7"/>
	<stop  offset="0.3345" style="stop-color:#FFC17D"/>
	<stop  offset="0.462" style="stop-color:#FFB05B"/>
	<stop  offset="0.591" style="stop-color:#FFA340"/>
	<stop  offset="0.7222" style="stop-color:#FF9A2D"/>
	<stop  offset="0.8568" style="stop-color:#FF9522"/>
	<stop  offset="1" style="stop-color:#FF931E"/>
</radialGradient>
<polygon class="st1" points="29.6,196.8 20.3,168.3 44.7,150.6 69.2,168.2 59.8,196.8 "/>
<radialGradient id="SVGID_2_" cx="-205.8953" cy="173.5203" r="23.8754" gradientTransform="matrix(0.1238 0 0 1 98.2671 0)" gradientUnits="userSpaceOnUse">
	<stop  offset="0" style="stop-color:#FFFFFF"/>
	<stop  offset="8.510864e-002" style="stop-color:#FFEDD8"/>
	<stop  offset="0.2082" style="stop-color:#FFD5A7"/>
	<stop  offset="0.3345" style="stop-color:#FFC17D"/>
	<stop  offset="0.462" style="stop-color:#FFB05B"/>
	<stop  offset="0.591" style="stop-color:#FFA340"/>
	<stop  offset="0.7222" style="stop-color:#FF9A2D"/>
	<stop  offset="0.8568" style="stop-color:#FF9522"/>
	<stop  offset="1" style="stop-color:#FF931E"/>
</radialGradient>
<polygon class="st2" points="70.9,196.8 69.8,168 72.8,150.2 75.8,168 74.6,196.8 "/>
<radialGradient id="SVGID_3_" cx="99.9733" cy="173.7331" r="23.7718" gradientTransform="matrix(0.981 0 0 1 2.6607 0)" gradientUnits="userSpaceOnUse">
	<stop  offset="0" style="stop-color:#FFFFFF"/>
	<stop  offset="8.510864e-002" style="stop-color:#FFEDD8"/>
	<stop  offset="0.2082" style="stop-color:#FFD5A7"/>
	<stop  offset="0.3345" style="stop-color:#FFC17D"/>
	<stop  offset="0.462" style="stop-color:#FFB05B"/>
	<stop  offset="0.591" style="stop-color:#FFA340"/>
	<stop  offset="0.7222" style="stop-color:#FF9A2D"/>
	<stop  offset="0.8568" style="stop-color:#FF9522"/>
	<stop  offset="1" style="stop-color:#FF931E"/>
</radialGradient>
<polygon class="st3" points="85.9,196.8 76.8,168.3 100.7,150.6 124.7,168.2 115.5,196.8 "/>
<radialGradient id="SVGID_4_" cx="72.5" cy="212.8333" r="37.1231" gradientUnits="userSpaceOnUse">
	<stop  offset="0" style="stop-color:#FFFFFF"/>
	<stop  offset="8.510864e-002" style="stop-color:#FFEDD8"/>
	<stop  offset="0.2082" style="stop-color:#FFD5A7"/>
	<stop  offset="0.3345" style="stop-color:#FFC17D"/>
	<stop  offset="0.462" style="stop-color:#FFB05B"/>
	<stop  offset="0.591" style="stop-color:#FFA340"/>
	<stop  offset="0.7222" style="stop-color:#FF9A2D"/>
	<stop  offset="0.8568" style="stop-color:#FF9522"/>
	<stop  offset="1" style="stop-color:#FF931E"/>
</radialGradient>
<line class="st4" x1="20" y1="212.8" x2="125" y2="212.8"/>
<radialGradient id="SVGID_5_" cx="124.5" cy="208.8333" r="3.182" gradientUnits="userSpaceOnUse">
	<stop  offset="0" style="stop-color:#FFFFFF"/>
	<stop  offset="8.510864e-002" style="stop-color:#FFEDD8"/>
	<stop  offset="0.2082" style="stop-color:#FFD5A7"/>
	<stop  offset="0.3345" style="stop-color:#FFC17D"/>
	<stop  offset="0.462" style="stop-color:#FFB05B"/>
	<stop  offset="0.591" style="stop-color:#FFA340"/>
	<stop  offset="0.7222" style="stop-color:#FF9A2D"/>
	<stop  offset="0.8568" style="stop-color:#FF9522"/>
	<stop  offset="1" style="stop-color:#FF931E"/>
</radialGradient>
<line class="st5" x1="124.5" y1="204.3" x2="124.5" y2="213.3"/>
<radialGradient id="SVGID_6_" cx="21.3423" cy="214.8623" r="2.4554" gradientTransform="matrix(0.9993 -3.867994e-002 5.054981e-002 1.3059 -12.0349 -70.9627)" gradientUnits="userSpaceOnUse">
	<stop  offset="0" style="stop-color:#FFFFFF"/>
	<stop  offset="8.510864e-002" style="stop-color:#FFEDD8"/>
	<stop  offset="0.2082" style="stop-color:#FFD5A7"/>
	<stop  offset="0.3345" style="stop-color:#FFC17D"/>
	<stop  offset="0.462" style="stop-color:#FFB05B"/>
	<stop  offset="0.591" style="stop-color:#FFA340"/>
	<stop  offset="0.7222" style="stop-color:#FF9A2D"/>
	<stop  offset="0.8568" style="stop-color:#FF9522"/>
	<stop  offset="1" style="stop-color:#FF931E"/>
</radialGradient>
<line class="st6" x1="20.1" y1="204.3" x2="20.2" y2="213.3"/>
<text transform="matrix(0.831 0 0 1 23.9437 226.8338)"><tspan x="0" y="0" class="st7 st8">Actin-binding domain</tspan><tspan x="0" y="15" class="st7 st8 st9">	</tspan><tspan x="37.6" y="15" class="st7 st8">(ABD)</tspan></text>
<linearGradient id="SVGID_7_" gradientUnits="userSpaceOnUse" x1="132.7861" y1="181.741" x2="167.2139" y2="181.741">
	<stop  offset="0" style="stop-color:#CCE0F4"/>
	<stop  offset="6.405089e-002" style="stop-color:#C3DCF2"/>
	<stop  offset="0.1706" style="stop-color:#A9D2EE"/>
	<stop  offset="0.3066" style="stop-color:#80C2E7"/>
	<stop  offset="0.4649" style="stop-color:#47ACDE"/>
	<stop  offset="0.5674" style="stop-color:#1E9CD7"/>
	<stop  offset="0.8652" style="stop-color:#0075BE"/>
	<stop  offset="0.9944" style="stop-color:#005B97"/>
</linearGradient>
<polygon class="st10" points="132.8,166.8 150,196.6 167.2,166.8 "/>
<line class="st11" x1="125" y1="169.8" x2="133" y2="169.8"/>
<line class="st12" x1="132.5" y1="131.3" x2="132.5" y2="141.3"/>
<line class="st12" x1="132" y1="131.8" x2="167" y2="131.8"/>
<line class="st12" x1="166.5" y1="132.3" x2="166.5" y2="141.3"/>
<text transform="matrix(0.831 0 0 1 133.0002 125.7664)" class="st7 st8">Hinge 1</text>
<line class="st13" x1="133" y1="171.1" x2="135.1" y2="171"/>
<line class="st14" x1="125" y1="170.8" x2="124" y2="170.8"/>
<g>
	<g>
		<path class="st15" d="M125.2,170"/>
	</g>
</g>
<g>
	<g>
		<path class="st15" d="M124.7,170.1"/>
	</g>
</g>
<path class="st15" d="M124.7,170.1c0.3-0.3,9.8-0.3,9.8-0.3"/>
<path class="st15" d="M124,170.3c0-0.1,10.5,0.3,10.5,0.3l-1.2-1.1l-0.3-0.8l-8.3,0.6"/>
<line class="st16" x1="166" y1="169.8" x2="171" y2="169.8"/>
<linearGradient id="SVGID_8_" gradientUnits="userSpaceOnUse" x1="171" y1="181.741" x2="222.1749" y2="181.741">
	<stop  offset="0" style="stop-color:#FF7BAC"/>
	<stop  offset="1" style="stop-color:#FF7BAC;stop-opacity:0"/>
</linearGradient>
<rect x="171" y="166.7" class="st17" width="51.2" height="30"/>
<linearGradient id="SVGID_9_" gradientUnits="userSpaceOnUse" x1="222.1749" y1="181.741" x2="272.3206" y2="181.741">
	<stop  offset="0" style="stop-color:#FF7BAC"/>
	<stop  offset="1" style="stop-color:#FF7BAC;stop-opacity:0"/>
</linearGradient>
<rect x="222.2" y="166.7" class="st18" width="50.1" height="30"/>
<linearGradient id="SVGID_10_" gradientUnits="userSpaceOnUse" x1="272.3206" y1="181.741" x2="323.4955" y2="181.741">
	<stop  offset="0" style="stop-color:#FF7BAC"/>
	<stop  offset="1" style="stop-color:#FF7BAC;stop-opacity:0"/>
</linearGradient>
<rect x="272.3" y="166.7" class="st19" width="51.2" height="30"/>
<linearGradient id="SVGID_11_" gradientUnits="userSpaceOnUse" x1="323.6016" y1="181.741" x2="346.3984" y2="181.741">
	<stop  offset="0" style="stop-color:#CCE0F4"/>
	<stop  offset="6.405089e-002" style="stop-color:#C3DCF2"/>
	<stop  offset="0.1706" style="stop-color:#A9D2EE"/>
	<stop  offset="0.3066" style="stop-color:#80C2E7"/>
	<stop  offset="0.4649" style="stop-color:#47ACDE"/>
	<stop  offset="0.5674" style="stop-color:#1E9CD7"/>
	<stop  offset="0.8652" style="stop-color:#0075BE"/>
	<stop  offset="0.9944" style="stop-color:#005B97"/>
</linearGradient>
<polygon class="st20" points="323.6,166.8 335,196.6 346.4,166.8 "/>
<linearGradient id="SVGID_12_" gradientUnits="userSpaceOnUse" x1="346.3984" y1="181.741" x2="397.5733" y2="181.741">
	<stop  offset="0" style="stop-color:#FF7BAC"/>
	<stop  offset="1" style="stop-color:#FF7BAC;stop-opacity:0"/>
</linearGradient>
<rect x="346.4" y="166.7" class="st21" width="51.2" height="30"/>
<linearGradient id="SVGID_13_" gradientUnits="userSpaceOnUse" x1="397.5733" y1="181.741" x2="446.4233" y2="181.741">
	<stop  offset="0" style="stop-color:#FF7BAC"/>
	<stop  offset="1" style="stop-color:#FF7BAC;stop-opacity:0"/>
</linearGradient>
<rect x="397.6" y="166.7" class="st22" width="48.8" height="30"/>
<linearGradient id="SVGID_14_" gradientUnits="userSpaceOnUse" x1="446.4233" y1="181.741" x2="497.5982" y2="181.741">
	<stop  offset="0" style="stop-color:#FF7BAC"/>
	<stop  offset="1" style="stop-color:#FF7BAC;stop-opacity:0"/>
</linearGradient>
<rect x="446.4" y="166.7" class="st23" width="51.2" height="30"/>
<linearGradient id="SVGID_15_" gradientUnits="userSpaceOnUse" x1="497.5982" y1="181.741" x2="547.8439" y2="181.741">
	<stop  offset="0" style="stop-color:#FF7BAC"/>
	<stop  offset="1" style="stop-color:#FF7BAC;stop-opacity:0"/>
</linearGradient>
<rect x="497.6" y="166.7" class="st24" width="50.2" height="30"/>
<linearGradient id="SVGID_16_" gradientUnits="userSpaceOnUse" x1="547.8439" y1="181.741" x2="598.0895" y2="181.741">
	<stop  offset="0" style="stop-color:#FF7BAC"/>
	<stop  offset="1" style="stop-color:#FF7BAC;stop-opacity:0"/>
</linearGradient>
<rect x="547.8" y="166.7" class="st25" width="50.2" height="30"/>
<linearGradient id="SVGID_17_" gradientUnits="userSpaceOnUse" x1="598.0895" y1="181.741" x2="646.0092" y2="181.741">
	<stop  offset="0" style="stop-color:#FF7BAC"/>
	<stop  offset="1" style="stop-color:#FF7BAC;stop-opacity:0"/>
</linearGradient>
<rect x="598.1" y="166.7" class="st26" width="47.9" height="30"/>
<linearGradient id="SVGID_18_" gradientUnits="userSpaceOnUse" x1="646.0092" y1="181.741" x2="690.2068" y2="181.741">
	<stop  offset="0" style="stop-color:#FF7BAC"/>
	<stop  offset="1" style="stop-color:#FF7BAC;stop-opacity:0"/>
</linearGradient>
<rect x="646" y="166.7" class="st27" width="44.2" height="30"/>
<linearGradient id="SVGID_19_" gradientUnits="userSpaceOnUse" x1="690.2068" y1="181.741" x2="735.8001" y2="181.741">
	<stop  offset="0" style="stop-color:#FF7BAC"/>
	<stop  offset="1" style="stop-color:#FF7BAC;stop-opacity:0"/>
</linearGradient>
<rect x="690.2" y="166.7" class="st28" width="45.6" height="30"/>
<line class="st29" x1="736" y1="168.8" x2="744" y2="168.8"/>
<linearGradient id="SVGID_20_" gradientUnits="userSpaceOnUse" x1="744" y1="181.741" x2="794.711" y2="181.741">
	<stop  offset="0" style="stop-color:#FF7BAC"/>
	<stop  offset="1" style="stop-color:#FF7BAC;stop-opacity:0"/>
</linearGradient>
<rect x="744" y="166.7" class="st30" width="50.7" height="30"/>
<linearGradient id="SVGID_21_" gradientUnits="userSpaceOnUse" x1="794.711" y1="181.741" x2="844.0262" y2="181.741">
	<stop  offset="0" style="stop-color:#FF7BAC"/>
	<stop  offset="1" style="stop-color:#FF7BAC;stop-opacity:0"/>
</linearGradient>
<rect x="794.7" y="166.7" class="st31" width="49.3" height="30"/>
<linearGradient id="SVGID_22_" gradientUnits="userSpaceOnUse" x1="1014.0262" y1="181.741" x2="1064.2719" y2="181.741">
	<stop  offset="0" style="stop-color:#FF7BAC"/>
	<stop  offset="1" style="stop-color:#FF7BAC;stop-opacity:0"/>
</linearGradient>
<rect x="1014" y="166.7" class="st32" width="50.2" height="30"/>
<linearGradient id="SVGID_23_" gradientUnits="userSpaceOnUse" x1="1064.2719" y1="181.741" x2="1117.7743" y2="181.741">
	<stop  offset="0" style="stop-color:#FF7BAC"/>
	<stop  offset="1" style="stop-color:#FF7BAC;stop-opacity:0"/>
</linearGradient>
<rect x="1064.3" y="166.7" class="st33" width="53.5" height="30"/>
<linearGradient id="SVGID_24_" gradientUnits="userSpaceOnUse" x1="1117.7743" y1="181.741" x2="1177.3247" y2="181.741">
	<stop  offset="0" style="stop-color:#FF7BAC"/>
	<stop  offset="1" style="stop-color:#FF7BAC;stop-opacity:0"/>
</linearGradient>
<rect x="1117.8" y="166.7" class="st34" width="59.6" height="30"/>
<linearGradient id="SVGID_25_" gradientUnits="userSpaceOnUse" x1="1177.3247" y1="181.741" x2="1227.5704" y2="181.741">
	<stop  offset="0" style="stop-color:#FF7BAC"/>
	<stop  offset="1" style="stop-color:#FF7BAC;stop-opacity:0"/>
</linearGradient>
<rect x="1177.3" y="166.7" class="st35" width="50.2" height="30"/>
<linearGradient id="SVGID_26_" gradientUnits="userSpaceOnUse" x1="1227.484" y1="181.741" x2="1260.516" y2="181.741">
	<stop  offset="0" style="stop-color:#CCE0F4"/>
	<stop  offset="6.405089e-002" style="stop-color:#C3DCF2"/>
	<stop  offset="0.1706" style="stop-color:#A9D2EE"/>
	<stop  offset="0.3066" style="stop-color:#80C2E7"/>
	<stop  offset="0.4649" style="stop-color:#47ACDE"/>
	<stop  offset="0.5674" style="stop-color:#1E9CD7"/>
	<stop  offset="0.8652" style="stop-color:#0075BE"/>
	<stop  offset="0.9944" style="stop-color:#005B97"/>
</linearGradient>
<polygon class="st36" points="1227.5,166.8 1244,196.6 1260.5,166.8 "/>
<linearGradient id="SVGID_27_" gradientUnits="userSpaceOnUse" x1="844.0262" y1="181.741" x2="894.7371" y2="181.741">
	<stop  offset="0" style="stop-color:#FF7BAC"/>
	<stop  offset="1" style="stop-color:#FF7BAC;stop-opacity:0"/>
</linearGradient>
<rect x="844" y="166.7" class="st37" width="50.7" height="30"/>
<linearGradient id="SVGID_28_" gradientUnits="userSpaceOnUse" x1="894.7371" y1="181.741" x2="943.1219" y2="181.741">
	<stop  offset="0" style="stop-color:#FF7BAC"/>
	<stop  offset="1" style="stop-color:#FF7BAC;stop-opacity:0"/>
</linearGradient>
<rect x="894.7" y="166.7" class="st38" width="48.4" height="30"/>
<linearGradient id="SVGID_29_" gradientUnits="userSpaceOnUse" x1="943.2995" y1="181.741" x2="964.7005" y2="181.741">
	<stop  offset="0" style="stop-color:#CCE0F4"/>
	<stop  offset="6.405089e-002" style="stop-color:#C3DCF2"/>
	<stop  offset="0.1706" style="stop-color:#A9D2EE"/>
	<stop  offset="0.3066" style="stop-color:#80C2E7"/>
	<stop  offset="0.4649" style="stop-color:#47ACDE"/>
	<stop  offset="0.5674" style="stop-color:#1E9CD7"/>
	<stop  offset="0.8652" style="stop-color:#0075BE"/>
	<stop  offset="0.9944" style="stop-color:#005B97"/>
</linearGradient>
<polygon class="st39" points="943.3,166.8 954,196.6 964.7,166.8 "/>
<linearGradient id="SVGID_30_" gradientUnits="userSpaceOnUse" x1="964.711" y1="181.741" x2="1014.0262" y2="181.741">
	<stop  offset="0" style="stop-color:#FF7BAC"/>
	<stop  offset="1" style="stop-color:#FF7BAC;stop-opacity:0"/>
</linearGradient>
<rect x="964.7" y="166.7" class="st40" width="49.3" height="30"/>
<polygon class="st41" points="1279.8,197.8 1275.6,174.3 1279.8,150.8 1288.2,150.8 1292.4,174.3 1288.2,197.8 "/>
<line class="st42" x1="1259" y1="168.8" x2="1276" y2="168.8"/>
<path class="st41" d="M1317.2,196.7h-3.9c-2.4,0-4.3-1.9-4.3-4.3v-38.2c0-2.4,1.9-4.3,4.3-4.3h3.9c2.4,0,4.3,1.9,4.3,4.3v38.2
	C1321.6,194.8,1319.6,196.7,1317.2,196.7z"/>
<line class="st42" x1="1309" y1="168.8" x2="1292" y2="168.8"/>
<line class="st42" x1="1322" y1="168.8" x2="1331" y2="168.8"/>
<path class="st41" d="M1339.7,196.7h-4.4c-2.4,0-4.3-1.9-4.3-4.3v-38.2c0-2.4,1.9-4.3,4.3-4.3h4.4c2.4,0,4.3,1.9,4.3,4.3v38.2
	C1344,194.8,1342.1,196.7,1339.7,196.7z"/>
<line class="st42" x1="1344" y1="168.8" x2="1391" y2="168.8"/>
<polygon class="st41" points="1398.2,196.8 1392.4,186.1 1391.1,169.9 1394.9,155.6 1402,149.9 1409.1,155.5 1412.9,169.8 
	1411.6,186.1 1405.8,196.8 "/>
<line class="st42" x1="1413" y1="168.8" x2="1454" y2="168.8"/>
<linearGradient id="SVGID_31_" gradientUnits="userSpaceOnUse" x1="1454" y1="173.3333" x2="1477.2618" y2="173.3333">
	<stop  offset="0" style="stop-color:#FFFFFF"/>
	<stop  offset="1" style="stop-color:#000000"/>
</linearGradient>
<ellipse class="st43" cx="1465.6" cy="173.3" rx="11.6" ry="23.5"/>
<linearGradient id="SVGID_32_" gradientUnits="userSpaceOnUse" x1="1477.3262" y1="173.3333" x2="1495.9357" y2="173.3333">
	<stop  offset="0" style="stop-color:#FFFFFF"/>
	<stop  offset="1" style="stop-color:#000000"/>
</linearGradient>
<ellipse class="st44" cx="1486.6" cy="173.3" rx="9.3" ry="23.5"/>
<line class="st42" x1="1495" y1="168.8" x2="1506" y2="168.8"/>
<linearGradient id="SVGID_33_" gradientUnits="userSpaceOnUse" x1="1506.4893" y1="173.3333" x2="1522.7726" y2="173.3333">
	<stop  offset="0" style="stop-color:#FFFFFF"/>
	<stop  offset="1" style="stop-color:#000000"/>
</linearGradient>
<ellipse class="st45" cx="1514.6" cy="173.3" rx="8.1" ry="23.5"/>
<linearGradient id="SVGID_34_" gradientUnits="userSpaceOnUse" x1="1522.7726" y1="173.3333" x2="1565.5745" y2="173.3333">
	<stop  offset="0" style="stop-color:#FFFFFF"/>
	<stop  offset="1" style="stop-color:#000000"/>
</linearGradient>
<rect x="1522.8" y="160" class="st46" width="42.8" height="26.7"/>
<linearGradient id="SVGID_35_" gradientUnits="userSpaceOnUse" x1="135.5" y1="208.8333" x2="135.5" y2="208.8333">
	<stop  offset="0" style="stop-color:#FFFFFF"/>
	<stop  offset="1" style="stop-color:#000000"/>
</linearGradient>
<line class="st47" x1="135.5" y1="204.3" x2="135.5" y2="213.3"/>
<linearGradient id="SVGID_36_" gradientUnits="userSpaceOnUse" x1="135.5" y1="214.53" x2="948.5" y2="214.53">
	<stop  offset="0" style="stop-color:#FFFFFF"/>
	<stop  offset="1" style="stop-color:#000000"/>
</linearGradient>
<line class="st48" x1="135.5" y1="213.3" x2="948.5" y2="215.7"/>
<linearGradient id="SVGID_37_" gradientUnits="userSpaceOnUse" x1="948.5" y1="215.1283" x2="1261" y2="215.1283">
	<stop  offset="0" style="stop-color:#FFFFFF"/>
	<stop  offset="1" style="stop-color:#000000"/>
</linearGradient>
<line class="st49" x1="948.5" y1="215.7" x2="1261" y2="214.5"/>
<linearGradient id="SVGID_38_" gradientUnits="userSpaceOnUse" x1="1260.5" y1="209.8333" x2="1260.5" y2="209.8333">
	<stop  offset="0" style="stop-color:#FFFFFF"/>
	<stop  offset="1" style="stop-color:#000000"/>
</linearGradient>
<line class="st50" x1="1260.5" y1="214.3" x2="1260.5" y2="205.3"/>
<text transform="matrix(0.831 0 0 1 697.4504 226.8338)" class="st7 st8">Central rod domain</text>
<linearGradient id="SVGID_39_" gradientUnits="userSpaceOnUse" x1="1275.5" y1="209.8333" x2="1275.5" y2="209.8333">
	<stop  offset="0" style="stop-color:#FFFFFF"/>
	<stop  offset="1" style="stop-color:#000000"/>
</linearGradient>
<line class="st51" x1="1275.5" y1="205.3" x2="1275.5" y2="214.3"/>
<linearGradient id="SVGID_40_" gradientUnits="userSpaceOnUse" x1="1275.5" y1="215.03" x2="1433.5" y2="215.03">
	<stop  offset="0" style="stop-color:#FFFFFF"/>
	<stop  offset="1" style="stop-color:#000000"/>
</linearGradient>
<line class="st52" x1="1275.5" y1="214.3" x2="1433.5" y2="215.7"/>
<linearGradient id="SVGID_41_" gradientUnits="userSpaceOnUse" x1="1433.5" y1="210.3333" x2="1433.5" y2="210.3333">
	<stop  offset="0" style="stop-color:#FFFFFF"/>
	<stop  offset="1" style="stop-color:#000000"/>
</linearGradient>
<line class="st53" x1="1433.5" y1="215.3" x2="1433.5" y2="205.3"/>
<linearGradient id="SVGID_42_" gradientUnits="userSpaceOnUse" x1="1453.5" y1="209.8333" x2="1453.5" y2="209.8333">
	<stop  offset="0" style="stop-color:#FFFFFF"/>
	<stop  offset="1" style="stop-color:#000000"/>
</linearGradient>
<line class="st54" x1="1453.5" y1="205.3" x2="1453.5" y2="214.3"/>
<linearGradient id="SVGID_43_" gradientUnits="userSpaceOnUse" x1="1453.5" y1="214.4316" x2="1566.0745" y2="214.4316">
	<stop  offset="0" style="stop-color:#FFFFFF"/>
	<stop  offset="1" style="stop-color:#000000"/>
</linearGradient>
<line class="st55" x1="1453.5" y1="214.3" x2="1566.1" y2="214.5"/>
<linearGradient id="SVGID_44_" gradientUnits="userSpaceOnUse" x1="1565.5" y1="210.8333" x2="1565.5" y2="210.8333">
	<stop  offset="0" style="stop-color:#FFFFFF"/>
	<stop  offset="1" style="stop-color:#000000"/>
</linearGradient>
<line class="st56" x1="1565.5" y1="215.3" x2="1565.5" y2="206.3"/>
<text transform="matrix(0.831 0 0 1 1308.9998 226.8339)" class="st7 st8">Cysteine-rich domain</text>
<text transform="matrix(0.831 0 0 1 1473.9929 226.8342)"><tspan x="0" y="0" class="st7 st8">Carboxy-terminal</tspan><tspan x="0" y="15" class="st7 st8">           domain</tspan></text>
<line class="st14" x1="323.5" y1="141.3" x2="323.5" y2="131.3"/>
<line class="st14" x1="324" y1="131.8" x2="346" y2="131.8"/>
<line class="st14" x1="346" y1="131.3" x2="346.4" y2="141.3"/>
<text transform="matrix(0.831 0 0 1 320.0002 125.7663)" class="st7 st8">Hinge 2</text>
<line class="st14" x1="942.5" y1="141.3" x2="942.5" y2="131.3"/>
<line class="st14" x1="943" y1="131.8" x2="965" y2="131.8"/>
<line class="st14" x1="965" y1="131.3" x2="964.7" y2="141.3"/>
<text transform="matrix(0.831 0 0 1 937.3335 125.7663)" class="st7 st8">Hinge 3</text>
<line class="st14" x1="1227.5" y1="141.3" x2="1227.5" y2="131.3"/>
<line class="st14" x1="1227.5" y1="131.3" x2="1260.5" y2="131.8"/>
<line class="st14" x1="1260.5" y1="131.8" x2="1261" y2="141.3"/>
<text transform="matrix(0.831 0 0 1 1227.4843 125.7663)" class="st7 st8">Hinge 4</text>
<text transform="matrix(0.831 0 0 1 222.1751 153.2994)" class="st7 st8">Repeat 1-3</text>
<text transform="matrix(0.831 0 0 1 514.1751 153.2996)" class="st7 st8">Repeat 4-11</text>
<text transform="matrix(0.831 0 0 1 819.3684 153.2996)" class="st7 st8">Repeat 12-15</text>
<text transform="matrix(0.831 0 0 1 1064.2722 153.2995)" class="st7 st8">Repeat 16-20</text>
<line class="st14" x1="735.5" y1="141.3" x2="735.5" y2="132.3"/>
<line class="st14" x1="735" y1="132.8" x2="744" y2="132.8"/>
<line class="st14" x1="743.5" y1="133.3" x2="743.5" y2="141.3"/>
<text transform="matrix(0.831 0 0 1 713.0037 125.7661)" class="st7 st8">Interruption</text>
<line class="st14" x1="19.5" y1="141.3" x2="19.5" y2="132.3"/>
<line class="st14" x1="20" y1="132.8" x2="69" y2="132.8"/>
<line class="st14" x1="68.5" y1="132.3" x2="68.5" y2="141.3"/>
<text transform="matrix(0.831 0 0 1 5.9439 125.7862)"><tspan x="0" y="0" class="st7 st8 st9">	</tspan><tspan x="37.6" y="0" class="st7 st8">CH1</tspan></text>
<line class="st14" x1="76.5" y1="141.3" x2="76.5" y2="131.3"/>
<line class="st14" x1="77" y1="131.8" x2="124" y2="131.8"/>
<line class="st14" x1="123.5" y1="131.3" x2="123.5" y2="141.3"/>
<text transform="matrix(0.831 0 0 1 63.9438 125.7865)"><tspan x="0" y="0" class="st7 st8 st9">	</tspan><tspan x="37.6" y="0" class="st7 st8">CH2</tspan></text>
<line class="st14" x1="689.5" y1="244.3" x2="689.5" y2="253.3"/>
<line class="st14" x1="690" y1="253.8" x2="1064" y2="253.8"/>
<line class="st14" x1="1063.5" y1="253.3" x2="1063.5" y2="244.3"/>
<text transform="matrix(0.831 0 0 1 832.4504 271.8339)"><tspan x="0" y="0" class="st7 st8">Actin-binding domain</tspan><tspan x="0" y="15" class="st7 st8 st9">	</tspan><tspan x="37.6" y="15" class="st7 st8">(ABD2)</tspan></text>
<line class="st14" x1="1274.5" y1="139.3" x2="1274.5" y2="115.3"/>
<line class="st14" x1="1275" y1="114.8" x2="1292" y2="114.8"/>
<line class="st14" x1="1291.5" y1="115.3" x2="1291.5" y2="139.3"/>
<text transform="matrix(0.831 0 0 1 1260.4998 104.7664)" class="st7 st8">WW domain</text>
<line class="st14" x1="1308.5" y1="139.3" x2="1308.5" y2="131.3"/>
<line class="st14" x1="1309" y1="131.8" x2="1344" y2="131.8"/>
<line class="st14" x1="1344" y1="131.3" x2="1344" y2="139.3"/>
<text transform="matrix(0.831 0 0 1 1300.5 125.7663)" class="st7 st8">EF-hand domains</text>
<text transform="matrix(1 0 0 1 1313.5614 176.4011)" class="st7 st57">1</text>
<text transform="matrix(1 0 0 1 1334.9222 176.4009)" class="st7 st57">2</text>
<line class="st14" x1="1390.5" y1="139.3" x2="1390.5" y2="131.3"/>
<line class="st14" x1="1391" y1="131.8" x2="1413" y2="131.8"/>
<line class="st14" x1="1412.5" y1="131.3" x2="1412.5" y2="139.3"/>
<text transform="matrix(0.831 0 0 1 1383.5 125.766)" class="st7 st8">ZZ domain</text>
<line class="st14" x1="1453.5" y1="141.3" x2="1453.5" y2="131.3"/>
<line class="st14" x1="1454" y1="131.8" x2="1477" y2="131.8"/>
<line class="st14" x1="1477" y1="131.3" x2="1477.3" y2="141.3"/>
<line class="st14" x1="1477" y1="131.8" x2="1496" y2="131.8"/>
<line class="st14" x1="1495.5" y1="131.3" x2="1495.5" y2="141.3"/>
<text transform="matrix(0.831 0 0 1 1447.5 110.7664)"><tspan x="0" y="0" class="st7 st8">Syntrophin</tspan><tspan x="0" y="15" class="st7 st8">    binding</tspan></text>
<line class="st14" x1="1505.5" y1="141.3" x2="1505.5" y2="131.3"/>
<line class="st14" x1="1506" y1="131.8" x2="1523" y2="131.8"/>
<line class="st14" x1="1522.5" y1="131.3" x2="1522.5" y2="141.3"/>
<text transform="matrix(0.831 0 0 1 1500.5 125.766)" class="st7 st8">(Leu)6-heptad</text>
<text transform="matrix(1 0 0 1 1461.6941 176.4009)" class="st58 st7 st57">α</text>
<text transform="matrix(1 0 0 1 1483.9402 176.4011)" class="st59 st7 st57">β</text>
<line class="st14" x1="1282.5" y1="244.3" x2="1282.5" y2="254.3"/>
<line class="st14" x1="1283" y1="254.8" x2="1422" y2="254.8"/>
<line class="st14" x1="1421.5" y1="254.3" x2="1421.5" y2="244.3"/>
<text transform="matrix(0.831 0 0 1 1308.5002 271.8339)" class="st7 st8">Dystroglycan binding</text>
<path class="st42" d="M825.7-67.3"/>
<path class="st42" d="M522.7,636.3"/>
<text transform="matrix(1 0 0 1 26 292.3333)"><tspan x="0" y="0" class="st7 st57">CH = Calponin homology</tspan><tspan x="0" y="14.4" class="st7 st57"> </tspan></text>
<line class="st14" x1="964.5" y1="272.3" x2="964.5" y2="282.3"/>
<line class="st14" x1="965" y1="282.8" x2="1077" y2="282.8"/>
<line class="st14" x1="1076.5" y1="282.3" x2="1076.5" y2="272.3"/>
<text transform="matrix(0.831 0 0 1 977.4504 298.8339)"><tspan x="0" y="0" class="st7 st8">Neuronal nitric oxide</tspan><tspan x="0" y="15" class="st7 st8">     synthase binding</tspan><tspan x="0" y="30" class="st7 st8 st9">	</tspan><tspan x="37.6" y="30" class="st7 st8">(nNOS)</tspan></text>
</svg>
